<?xml version="1.0" standalone="no"?>
<!DOCTYPE svg PUBLIC "-//W3C//DTD SVG 20010904//EN"
 "http://www.w3.org/TR/2001/REC-SVG-20010904/DTD/svg10.dtd">
<svg version="1.0" xmlns="http://www.w3.org/2000/svg"
 width="2105.000000pt" height="2105.000000pt" viewBox="0 0 2105.000000 2105.000000"
 preserveAspectRatio="xMidYMid meet">

<g transform="translate(0.000000,2105.000000) scale(0.100000,-0.100000)"
fill="#000000" stroke="none">
<path d="M10280 21023 c-2362 -51 -4637 -903 -6461 -2419 -252 -209 -424 -368
-714 -658 -299 -299 -441 -453 -651 -706 -1346 -1620 -2170 -3589 -2373 -5671
-62 -627 -67 -1301 -15 -1924 288 -3480 2302 -6593 5371 -8300 1840 -1023
3937 -1462 6068 -1269 1635 148 3219 687 4631 1577 1467 924 2714 2242 3561
3762 783 1404 1224 2936 1313 4555 13 239 13 887 0 1116 -77 1353 -377 2582
-924 3786 -871 1921 -2343 3572 -4151 4655 -1413 847 -2959 1341 -4595 1468
-206 16 -744 36 -870 33 -41 -1 -127 -3 -190 -5z m1754 -5574 c707 -1543 1286
-2809 1286 -2812 0 -4 -1159 -7 -2576 -7 -1652 0 -2574 3 -2572 10 21 61 2565
5627 2569 5622 4 -4 585 -1270 1293 -2813z m3396 -7501 c754 -1649 1370 -3002
1370 -3007 0 -11 -1433 -5 -1864 8 l-218 6 -1299 2970 c-715 1634 -1302 2980
-1305 2992 l-6 23 468 3 c258 1 697 2 977 2 l507 0 1370 -2997z m-5983 2955
c-5 -18 -2701 -5854 -2731 -5912 l-17 -31 -1030 0 c-914 0 -1030 2 -1027 15 2
8 620 1349 1373 2980 l1370 2965 1034 0 c979 0 1033 -1 1028 -17z"/>
</g>
</svg>
